<svg width="68" height="38" viewBox="0 0 68 38" fill="none" xmlns="http://www.w3.org/2000/svg">
<g clip-path="url(#clip0_941_11975)">
<path d="M3.74519 29.8032V20.7165L12.4105 29.8032H17.2388V29.5673L7.26794 19.2213L16.4599 9.40034V9.28464H11.605L3.73634 17.962V9.28464H-0.162598V29.8032H3.74076H3.74519ZM23.9391 30.2437C26.1873 30.2437 28.6435 29.4516 30.2101 27.8986L27.9 25.6425C27.0414 26.4924 25.3287 26.9953 23.9966 26.9953C21.4254 26.9953 19.8853 25.7048 19.6507 23.9159H31.0289C31.0598 23.4487 31.0908 23.0082 31.0908 22.5632C31.0908 17.5214 28.1301 14.9716 23.6647 14.9716C18.9293 14.9716 15.9155 18.1355 15.9155 22.5365C15.9199 27.1377 18.9072 30.2437 23.9391 30.2437ZM27.5769 20.9523H19.7038C20.2659 19.0744 21.806 18.1355 23.7798 18.1355C25.8863 18.1355 27.3379 19.0744 27.5725 20.9523H27.5769ZM36.2599 36.4291V28.1033C37.322 29.7142 39.5437 30.2126 41.1147 30.2126C45.7881 30.2126 48.4789 26.8128 48.4789 22.5899C48.4789 18.3669 45.4916 15.025 40.9953 15.025C39.3401 15.025 37.415 15.7014 36.2643 17.3434L36.0253 15.3499H32.6442V36.4202H36.2599V36.4291ZM40.7253 26.7283C38.2381 26.7283 36.583 24.8504 36.583 22.5943C36.583 20.3382 38.1231 18.4915 40.7253 18.4915C43.3275 18.4915 44.8676 20.3382 44.8676 22.5943C44.8676 24.8504 43.208 26.7283 40.7209 26.7283H40.7253ZM53.8471 29.8076V9.31134H50.2624V29.8032H53.8471V29.8076ZM60.1314 29.8076V22.1849C60.1314 19.4794 61.8795 18.5137 63.7693 18.5137C64.9553 18.5137 65.6324 18.9009 66.3715 19.4527L68.0001 16.3422C67.2035 15.608 65.7519 14.9894 64.2428 14.9894C62.7337 14.9894 61.198 15.252 60.1314 17.0097L59.8659 15.341H56.5202V29.7898L60.1314 29.8032V29.8076Z" fill="#F5F5F5"/>
</g>
<defs>
<clipPath id="clip0_941_11975">
<rect width="68" height="38" fill="white"/>
</clipPath>
</defs>
</svg>
